<svg width="244" height="143" viewBox="0 0 244 143" fill="none" xmlns="http://www.w3.org/2000/svg">
<path d="M225.62 142V133.54H227.168L230.024 138.736L232.868 133.54H234.392V142H232.7V136.84L230.516 140.728H229.472L227.3 136.876V142H225.62Z" fill="#666666"/>
<path d="M193.532 142.132C192.868 142.132 192.24 142.048 191.648 141.88C191.064 141.712 190.576 141.484 190.184 141.196L190.724 139.732C191.1 139.996 191.528 140.204 192.008 140.356C192.496 140.508 193.004 140.584 193.532 140.584C194.108 140.584 194.52 140.496 194.768 140.32C195.024 140.136 195.152 139.908 195.152 139.636C195.152 139.404 195.064 139.22 194.888 139.084C194.712 138.948 194.404 138.832 193.964 138.736L192.608 138.448C191.096 138.128 190.34 137.344 190.34 136.096C190.34 135.56 190.484 135.092 190.772 134.692C191.06 134.284 191.46 133.968 191.972 133.744C192.492 133.52 193.092 133.408 193.772 133.408C194.356 133.408 194.904 133.492 195.416 133.66C195.928 133.828 196.352 134.064 196.688 134.368L196.148 135.736C195.492 135.216 194.696 134.956 193.76 134.956C193.256 134.956 192.864 135.056 192.584 135.256C192.312 135.448 192.176 135.7 192.176 136.012C192.176 136.244 192.26 136.432 192.428 136.576C192.596 136.72 192.888 136.836 193.304 136.924L194.66 137.212C196.212 137.548 196.988 138.308 196.988 139.492C196.988 140.02 196.844 140.484 196.556 140.884C196.276 141.276 195.876 141.584 195.356 141.808C194.844 142.024 194.236 142.132 193.532 142.132Z" fill="#666666"/>
<path d="M154.774 142.12L154.642 140.608L155.566 140.56C156.206 140.52 156.526 140.184 156.526 139.552V133.54H158.386V139.528C158.386 141.112 157.546 141.96 155.866 142.072L154.774 142.12Z" fill="#666666"/>
<path d="M117.233 142V133.54H119.093V137.224H119.117L122.633 133.54H124.865L120.929 137.584L125.033 142H122.777L119.117 138.136H119.093V142H117.233Z" fill="#666666"/>
<path d="M82.1743 142V133.54H86.0383C86.9823 133.54 87.7103 133.768 88.2223 134.224C88.7343 134.68 88.9903 135.316 88.9903 136.132C88.9903 136.764 88.8263 137.292 88.4983 137.716C88.1783 138.132 87.7183 138.416 87.1183 138.568C87.5423 138.696 87.8903 139.004 88.1623 139.492L89.5303 142H87.4783L86.0143 139.3C85.8943 139.084 85.7463 138.936 85.5703 138.856C85.3943 138.768 85.1863 138.724 84.9463 138.724H84.0343V142H82.1743ZM84.0343 137.38H85.7023C86.7023 137.38 87.2023 136.98 87.2023 136.18C87.2023 135.388 86.7023 134.992 85.7023 134.992H84.0343V137.38Z" fill="#666666"/>
<path d="M50.5323 142.132C49.8683 142.132 49.2403 142.048 48.6483 141.88C48.0643 141.712 47.5763 141.484 47.1843 141.196L47.7243 139.732C48.1003 139.996 48.5283 140.204 49.0083 140.356C49.4963 140.508 50.0043 140.584 50.5323 140.584C51.1083 140.584 51.5203 140.496 51.7683 140.32C52.0243 140.136 52.1523 139.908 52.1523 139.636C52.1523 139.404 52.0643 139.22 51.8883 139.084C51.7123 138.948 51.4043 138.832 50.9643 138.736L49.6083 138.448C48.0963 138.128 47.3403 137.344 47.3403 136.096C47.3403 135.56 47.4843 135.092 47.7723 134.692C48.0603 134.284 48.4603 133.968 48.9723 133.744C49.4923 133.52 50.0923 133.408 50.7723 133.408C51.3563 133.408 51.9043 133.492 52.4163 133.66C52.9283 133.828 53.3523 134.064 53.6883 134.368L53.1483 135.736C52.4923 135.216 51.6963 134.956 50.7603 134.956C50.2563 134.956 49.8643 135.056 49.5843 135.256C49.3123 135.448 49.1763 135.7 49.1763 136.012C49.1763 136.244 49.2603 136.432 49.4283 136.576C49.5963 136.72 49.8883 136.836 50.3043 136.924L51.6603 137.212C53.2123 137.548 53.9883 138.308 53.9883 139.492C53.9883 140.02 53.8443 140.484 53.5563 140.884C53.2763 141.276 52.8763 141.584 52.3563 141.808C51.8443 142.024 51.2363 142.132 50.5323 142.132Z" fill="#666666"/>
<path d="M14.0323 142.132C13.3683 142.132 12.7403 142.048 12.1483 141.88C11.5643 141.712 11.0763 141.484 10.6843 141.196L11.2243 139.732C11.6003 139.996 12.0283 140.204 12.5083 140.356C12.9963 140.508 13.5043 140.584 14.0323 140.584C14.6083 140.584 15.0203 140.496 15.2683 140.32C15.5243 140.136 15.6523 139.908 15.6523 139.636C15.6523 139.404 15.5643 139.22 15.3883 139.084C15.2123 138.948 14.9043 138.832 14.4643 138.736L13.1083 138.448C11.5963 138.128 10.8403 137.344 10.8403 136.096C10.8403 135.56 10.9843 135.092 11.2723 134.692C11.5603 134.284 11.9603 133.968 12.4723 133.744C12.9923 133.52 13.5923 133.408 14.2723 133.408C14.8563 133.408 15.4043 133.492 15.9163 133.66C16.4283 133.828 16.8523 134.064 17.1883 134.368L16.6483 135.736C15.9923 135.216 15.1963 134.956 14.2603 134.956C13.7563 134.956 13.3643 135.056 13.0843 135.256C12.8123 135.448 12.6763 135.7 12.6763 136.012C12.6763 136.244 12.7603 136.432 12.9283 136.576C13.0963 136.72 13.3883 136.836 13.8043 136.924L15.1603 137.212C16.7123 137.548 17.4883 138.308 17.4883 139.492C17.4883 140.02 17.3443 140.484 17.0563 140.884C16.7763 141.276 16.3763 141.584 15.8563 141.808C15.3443 142.024 14.7363 142.132 14.0323 142.132Z" fill="#666666"/>
<rect x="220" y="73.6345" width="20" height="52.1923" rx="4" fill="#F14040" fill-opacity="0.2"/>
<rect x="184" y="85.5769" width="20" height="40.25" rx="4" fill="#F14040" fill-opacity="0.2"/>
<rect x="148" y="45.7693" width="20" height="80.0577" rx="4" fill="#F14040" fill-opacity="0.2"/>
<rect x="112" y="76.7307" width="20" height="49.0962" rx="4" fill="#F14040" fill-opacity="0.2"/>
<rect x="76" y="45.7693" width="20" height="80.0577" rx="4" fill="#F14040" fill-opacity="0.2"/>
<rect x="40" width="20" height="126" rx="4" fill="#F14040"/>
<rect x="4" y="76.7307" width="20" height="49.0962" rx="4" fill="#F14040" fill-opacity="0.2"/>
</svg>
