<svg width="15" height="28" viewBox="0 0 15 28" fill="none" xmlns="http://www.w3.org/2000/svg">
<path fill-rule="evenodd" clip-rule="evenodd" d="M3.64551 6.95C2.67651 7.676 2.14551 8.6225 2.14551 9.605C2.14551 10.589 2.67651 11.5355 3.64551 12.263C4.61451 12.9905 5.98851 13.463 7.53801 13.463C7.73692 13.463 7.92769 13.542 8.06834 13.6827C8.20899 13.8233 8.28801 14.0141 8.28801 14.213C8.28801 14.4119 8.20899 14.6027 8.06834 14.7433C7.92769 14.884 7.73692 14.963 7.53801 14.963C5.69601 14.963 3.99801 14.4035 2.74551 13.463C1.49151 12.5225 0.645508 11.168 0.645508 9.6065C0.645508 8.0465 1.49151 6.689 2.74551 5.7485C3.99951 4.8095 5.69601 4.25 7.53801 4.25C10.415 4.25 13.0085 5.6285 14.009 7.751C14.0937 7.93102 14.1035 8.13732 14.0361 8.32453C13.9688 8.51174 13.8298 8.66451 13.6498 8.74925C13.4697 8.83399 13.2634 8.84374 13.0762 8.77637C12.889 8.709 12.7362 8.57002 12.6515 8.39C11.966 6.935 10.01 5.75 7.53801 5.75C5.98851 5.75 4.61451 6.2225 3.64551 6.95Z" fill="#121212"/>
<path fill-rule="evenodd" clip-rule="evenodd" d="M10.9359 21.4745C11.9049 20.7485 12.4344 19.8005 12.4344 18.8195C12.4344 17.8355 11.9049 16.889 10.9344 16.1615C9.96542 15.434 8.59142 14.9615 7.04342 14.9615C6.8445 14.9615 6.65374 14.8825 6.51308 14.7418C6.37243 14.6012 6.29342 14.4104 6.29342 14.2115C6.29342 14.0126 6.37243 13.8218 6.51308 13.6812C6.65374 13.5405 6.8445 13.4615 7.04342 13.4615C8.88542 13.4615 10.5834 14.021 11.8359 14.9615C13.0884 15.902 13.9344 17.2565 13.9344 18.818C13.9344 20.378 13.0884 21.7355 11.8344 22.6745C10.5819 23.615 8.88542 24.1745 7.04342 24.1745C4.16642 24.1745 1.57291 22.796 0.572414 20.6735C0.487678 20.4935 0.477923 20.2872 0.545296 20.1C0.612668 19.9128 0.751649 19.76 0.931665 19.6752C1.11168 19.5905 1.31798 19.5808 1.50519 19.6481C1.6924 19.7155 1.84518 19.8545 1.92991 20.0345C2.61541 21.4895 4.56992 22.6745 7.04342 22.6745C8.59142 22.6745 9.96542 22.202 10.9359 21.4745ZM6.50042 0.5C6.69933 0.5 6.89009 0.579018 7.03075 0.71967C7.1714 0.860322 7.25041 1.05109 7.25041 1.25V4.25C7.25041 4.44891 7.1714 4.63968 7.03075 4.78033C6.89009 4.92098 6.69933 5 6.50042 5C6.3015 5 6.11074 4.92098 5.97008 4.78033C5.82943 4.63968 5.75042 4.44891 5.75042 4.25V1.25C5.75042 1.05109 5.82943 0.860322 5.97008 0.71967C6.11074 0.579018 6.3015 0.5 6.50042 0.5Z" fill="#121212"/>
<path fill-rule="evenodd" clip-rule="evenodd" d="M6.5 23C6.69891 23 6.88968 23.079 7.03033 23.2197C7.17098 23.3603 7.25 23.5511 7.25 23.75V26.75C7.25 26.9489 7.17098 27.1397 7.03033 27.2803C6.88968 27.421 6.69891 27.5 6.5 27.5C6.30109 27.5 6.11032 27.421 5.96967 27.2803C5.82902 27.1397 5.75 26.9489 5.75 26.75V23.75C5.75 23.5511 5.82902 23.3603 5.96967 23.2197C6.11032 23.079 6.30109 23 6.5 23Z" fill="#121212"/>
</svg>
