<svg width="702" height="299" viewBox="0 0 702 299" fill="none" xmlns="http://www.w3.org/2000/svg">
<path d="M3.1445 7.044C4.3605 7.044 5.2445 7.264 5.7965 7.704C6.3565 8.136 6.6365 8.744 6.6365 9.528C6.6365 10.016 6.5205 10.452 6.2885 10.836C6.0645 11.22 5.7245 11.524 5.2685 11.748C4.8125 11.964 4.2525 12.072 3.5885 12.072C2.9885 12.072 2.4165 11.976 1.8725 11.784C1.3365 11.584 0.9045 11.32 0.5765 10.992L0.9965 10.308C1.2765 10.596 1.6445 10.832 2.1005 11.016C2.5565 11.192 3.0485 11.28 3.5765 11.28C4.2725 11.28 4.8085 11.124 5.1845 10.812C5.5685 10.5 5.7605 10.084 5.7605 9.564C5.7605 8.988 5.5445 8.552 5.1125 8.256C4.6885 7.96 3.9685 7.812 2.9525 7.812H1.1645L1.5965 3.6H6.1925V4.368H2.3525L2.0645 7.044H3.1445ZM11.0814 12.072C10.4334 12.072 9.85338 11.9 9.34138 11.556C8.83738 11.212 8.44138 10.72 8.15338 10.08C7.87338 9.432 7.73338 8.672 7.73338 7.8C7.73338 6.928 7.87338 6.172 8.15338 5.532C8.44138 4.884 8.83738 4.388 9.34138 4.044C9.85338 3.7 10.4334 3.528 11.0814 3.528C11.7294 3.528 12.3054 3.7 12.8094 4.044C13.3214 4.388 13.7214 4.884 14.0094 5.532C14.2974 6.172 14.4414 6.928 14.4414 7.8C14.4414 8.672 14.2974 9.432 14.0094 10.08C13.7214 10.72 13.3214 11.212 12.8094 11.556C12.3054 11.9 11.7294 12.072 11.0814 12.072ZM11.0814 11.28C11.5694 11.28 11.9974 11.144 12.3654 10.872C12.7414 10.6 13.0334 10.204 13.2414 9.684C13.4494 9.164 13.5534 8.536 13.5534 7.8C13.5534 7.064 13.4494 6.436 13.2414 5.916C13.0334 5.396 12.7414 5 12.3654 4.728C11.9974 4.456 11.5694 4.32 11.0814 4.32C10.5934 4.32 10.1614 4.456 9.78538 4.728C9.41738 5 9.12938 5.396 8.92138 5.916C8.71338 6.436 8.60938 7.064 8.60938 7.8C8.60938 8.536 8.71338 9.164 8.92138 9.684C9.12938 10.204 9.41738 10.6 9.78538 10.872C10.1614 11.144 10.5934 11.28 11.0814 11.28ZM19.0267 12.072C18.3787 12.072 17.7987 11.9 17.2867 11.556C16.7827 11.212 16.3867 10.72 16.0987 10.08C15.8187 9.432 15.6787 8.672 15.6787 7.8C15.6787 6.928 15.8187 6.172 16.0987 5.532C16.3867 4.884 16.7827 4.388 17.2867 4.044C17.7987 3.7 18.3787 3.528 19.0267 3.528C19.6747 3.528 20.2507 3.7 20.7547 4.044C21.2667 4.388 21.6667 4.884 21.9547 5.532C22.2427 6.172 22.3867 6.928 22.3867 7.8C22.3867 8.672 22.2427 9.432 21.9547 10.08C21.6667 10.72 21.2667 11.212 20.7547 11.556C20.2507 11.9 19.6747 12.072 19.0267 12.072ZM19.0267 11.28C19.5147 11.28 19.9427 11.144 20.3107 10.872C20.6867 10.6 20.9787 10.204 21.1867 9.684C21.3947 9.164 21.4987 8.536 21.4987 7.8C21.4987 7.064 21.3947 6.436 21.1867 5.916C20.9787 5.396 20.6867 5 20.3107 4.728C19.9427 4.456 19.5147 4.32 19.0267 4.32C18.5387 4.32 18.1067 4.456 17.7307 4.728C17.3627 5 17.0747 5.396 16.8667 5.916C16.6587 6.436 16.5547 7.064 16.5547 7.8C16.5547 8.536 16.6587 9.164 16.8667 9.684C17.0747 10.204 17.3627 10.6 17.7307 10.872C18.1067 11.144 18.5387 11.28 19.0267 11.28Z" fill="#666666"/>
<path d="M5.08156 73.2C5.96156 73.248 6.62956 73.488 7.08556 73.92C7.54956 74.344 7.78156 74.9 7.78156 75.588C7.78156 76.068 7.66556 76.496 7.43356 76.872C7.20156 77.24 6.85756 77.532 6.40156 77.748C5.94556 77.964 5.38956 78.072 4.73356 78.072C4.12556 78.072 3.54956 77.976 3.00556 77.784C2.46956 77.584 2.03756 77.32 1.70956 76.992L2.12956 76.308C2.40956 76.596 2.78156 76.832 3.24556 77.016C3.70956 77.192 4.20556 77.28 4.73356 77.28C5.42156 77.28 5.95356 77.132 6.32956 76.836C6.70556 76.532 6.89356 76.116 6.89356 75.588C6.89356 75.068 6.70556 74.66 6.32956 74.364C5.95356 74.068 5.38556 73.92 4.62556 73.92H4.02556V73.284L6.35356 70.368H2.05756V69.6H7.45756V70.212L5.08156 73.2ZM11.0898 73.044C12.3058 73.044 13.1898 73.264 13.7418 73.704C14.3018 74.136 14.5818 74.744 14.5818 75.528C14.5818 76.016 14.4658 76.452 14.2338 76.836C14.0098 77.22 13.6698 77.524 13.2138 77.748C12.7578 77.964 12.1978 78.072 11.5338 78.072C10.9338 78.072 10.3618 77.976 9.81781 77.784C9.28181 77.584 8.84981 77.32 8.52181 76.992L8.94181 76.308C9.22181 76.596 9.58981 76.832 10.0458 77.016C10.5018 77.192 10.9938 77.28 11.5218 77.28C12.2178 77.28 12.7538 77.124 13.1298 76.812C13.5138 76.5 13.7058 76.084 13.7058 75.564C13.7058 74.988 13.4898 74.552 13.0578 74.256C12.6338 73.96 11.9138 73.812 10.8978 73.812H9.10981L9.54181 69.6H14.1378V70.368H10.2978L10.0098 73.044H11.0898ZM19.0267 78.072C18.3787 78.072 17.7987 77.9 17.2867 77.556C16.7827 77.212 16.3867 76.72 16.0987 76.08C15.8187 75.432 15.6787 74.672 15.6787 73.8C15.6787 72.928 15.8187 72.172 16.0987 71.532C16.3867 70.884 16.7827 70.388 17.2867 70.044C17.7987 69.7 18.3787 69.528 19.0267 69.528C19.6747 69.528 20.2507 69.7 20.7547 70.044C21.2667 70.388 21.6667 70.884 21.9547 71.532C22.2427 72.172 22.3867 72.928 22.3867 73.8C22.3867 74.672 22.2427 75.432 21.9547 76.08C21.6667 76.72 21.2667 77.212 20.7547 77.556C20.2507 77.9 19.6747 78.072 19.0267 78.072ZM19.0267 77.28C19.5147 77.28 19.9427 77.144 20.3107 76.872C20.6867 76.6 20.9787 76.204 21.1867 75.684C21.3947 75.164 21.4987 74.536 21.4987 73.8C21.4987 73.064 21.3947 72.436 21.1867 71.916C20.9787 71.396 20.6867 71 20.3107 70.728C19.9427 70.456 19.5147 70.32 19.0267 70.32C18.5387 70.32 18.1067 70.456 17.7307 70.728C17.3627 71 17.0747 71.396 16.8667 71.916C16.6587 72.436 16.5547 73.064 16.5547 73.8C16.5547 74.536 16.6587 75.164 16.8667 75.684C17.0747 76.204 17.3627 76.6 17.7307 76.872C18.1067 77.144 18.5387 77.28 19.0267 77.28Z" fill="#666666"/>
<path d="M7.6725 142.232V143H1.7805V142.388L5.2725 138.968C5.7125 138.536 6.0085 138.164 6.1605 137.852C6.3205 137.532 6.4005 137.212 6.4005 136.892C6.4005 136.396 6.2285 136.012 5.8845 135.74C5.5485 135.46 5.0645 135.32 4.4325 135.32C3.4485 135.32 2.6845 135.632 2.1405 136.256L1.5285 135.728C1.8565 135.344 2.2725 135.048 2.7765 134.84C3.2885 134.632 3.8645 134.528 4.5045 134.528C5.3605 134.528 6.0365 134.732 6.5325 135.14C7.0365 135.54 7.2885 136.092 7.2885 136.796C7.2885 137.228 7.1925 137.644 7.0005 138.044C6.8085 138.444 6.4445 138.904 5.9085 139.424L3.0525 142.232H7.6725ZM12.0814 143.072C11.4334 143.072 10.8534 142.9 10.3414 142.556C9.83738 142.212 9.44138 141.72 9.15338 141.08C8.87338 140.432 8.73338 139.672 8.73338 138.8C8.73338 137.928 8.87338 137.172 9.15338 136.532C9.44138 135.884 9.83738 135.388 10.3414 135.044C10.8534 134.7 11.4334 134.528 12.0814 134.528C12.7294 134.528 13.3054 134.7 13.8094 135.044C14.3214 135.388 14.7214 135.884 15.0094 136.532C15.2974 137.172 15.4414 137.928 15.4414 138.8C15.4414 139.672 15.2974 140.432 15.0094 141.08C14.7214 141.72 14.3214 142.212 13.8094 142.556C13.3054 142.9 12.7294 143.072 12.0814 143.072ZM12.0814 142.28C12.5694 142.28 12.9974 142.144 13.3654 141.872C13.7414 141.6 14.0334 141.204 14.2414 140.684C14.4494 140.164 14.5534 139.536 14.5534 138.8C14.5534 138.064 14.4494 137.436 14.2414 136.916C14.0334 136.396 13.7414 136 13.3654 135.728C12.9974 135.456 12.5694 135.32 12.0814 135.32C11.5934 135.32 11.1614 135.456 10.7854 135.728C10.4174 136 10.1294 136.396 9.92138 136.916C9.71338 137.436 9.60938 138.064 9.60938 138.8C9.60938 139.536 9.71338 140.164 9.92138 140.684C10.1294 141.204 10.4174 141.6 10.7854 141.872C11.1614 142.144 11.5934 142.28 12.0814 142.28ZM20.0267 143.072C19.3787 143.072 18.7987 142.9 18.2867 142.556C17.7827 142.212 17.3867 141.72 17.0987 141.08C16.8187 140.432 16.6787 139.672 16.6787 138.8C16.6787 137.928 16.8187 137.172 17.0987 136.532C17.3867 135.884 17.7827 135.388 18.2867 135.044C18.7987 134.7 19.3787 134.528 20.0267 134.528C20.6747 134.528 21.2507 134.7 21.7547 135.044C22.2667 135.388 22.6667 135.884 22.9547 136.532C23.2427 137.172 23.3867 137.928 23.3867 138.8C23.3867 139.672 23.2427 140.432 22.9547 141.08C22.6667 141.72 22.2667 142.212 21.7547 142.556C21.2507 142.9 20.6747 143.072 20.0267 143.072ZM20.0267 142.28C20.5147 142.28 20.9427 142.144 21.3107 141.872C21.6867 141.6 21.9787 141.204 22.1867 140.684C22.3947 140.164 22.4987 139.536 22.4987 138.8C22.4987 138.064 22.3947 137.436 22.1867 136.916C21.9787 136.396 21.6867 136 21.3107 135.728C20.9427 135.456 20.5147 135.32 20.0267 135.32C19.5387 135.32 19.1067 135.456 18.7307 135.728C18.3627 136 18.0747 136.396 17.8667 136.916C17.6587 137.436 17.5547 138.064 17.5547 138.8C17.5547 139.536 17.6587 140.164 17.8667 140.684C18.0747 141.204 18.3627 141.6 18.7307 141.872C19.1067 142.144 19.5387 142.28 20.0267 142.28Z" fill="#666666"/>
<path d="M3.72544 200.6V209H2.86144V201.368H0.881438V200.6H3.72544ZM9.08138 209.072C8.43338 209.072 7.85338 208.9 7.34138 208.556C6.83738 208.212 6.44138 207.72 6.15338 207.08C5.87338 206.432 5.73338 205.672 5.73338 204.8C5.73338 203.928 5.87338 203.172 6.15338 202.532C6.44138 201.884 6.83738 201.388 7.34138 201.044C7.85338 200.7 8.43338 200.528 9.08138 200.528C9.72938 200.528 10.3054 200.7 10.8094 201.044C11.3214 201.388 11.7214 201.884 12.0094 202.532C12.2974 203.172 12.4414 203.928 12.4414 204.8C12.4414 205.672 12.2974 206.432 12.0094 207.08C11.7214 207.72 11.3214 208.212 10.8094 208.556C10.3054 208.9 9.72938 209.072 9.08138 209.072ZM9.08138 208.28C9.56938 208.28 9.99738 208.144 10.3654 207.872C10.7414 207.6 11.0334 207.204 11.2414 206.684C11.4494 206.164 11.5534 205.536 11.5534 204.8C11.5534 204.064 11.4494 203.436 11.2414 202.916C11.0334 202.396 10.7414 202 10.3654 201.728C9.99738 201.456 9.56938 201.32 9.08138 201.32C8.59338 201.32 8.16138 201.456 7.78538 201.728C7.41738 202 7.12938 202.396 6.92138 202.916C6.71338 203.436 6.60938 204.064 6.60938 204.8C6.60938 205.536 6.71338 206.164 6.92138 206.684C7.12938 207.204 7.41738 207.6 7.78538 207.872C8.16138 208.144 8.59338 208.28 9.08138 208.28ZM17.0267 209.072C16.3787 209.072 15.7987 208.9 15.2867 208.556C14.7827 208.212 14.3867 207.72 14.0987 207.08C13.8187 206.432 13.6787 205.672 13.6787 204.8C13.6787 203.928 13.8187 203.172 14.0987 202.532C14.3867 201.884 14.7827 201.388 15.2867 201.044C15.7987 200.7 16.3787 200.528 17.0267 200.528C17.6747 200.528 18.2507 200.7 18.7547 201.044C19.2667 201.388 19.6667 201.884 19.9547 202.532C20.2427 203.172 20.3867 203.928 20.3867 204.8C20.3867 205.672 20.2427 206.432 19.9547 207.08C19.6667 207.72 19.2667 208.212 18.7547 208.556C18.2507 208.9 17.6747 209.072 17.0267 209.072ZM17.0267 208.28C17.5147 208.28 17.9427 208.144 18.3107 207.872C18.6867 207.6 18.9787 207.204 19.1867 206.684C19.3947 206.164 19.4987 205.536 19.4987 204.8C19.4987 204.064 19.3947 203.436 19.1867 202.916C18.9787 202.396 18.6867 202 18.3107 201.728C17.9427 201.456 17.5147 201.32 17.0267 201.32C16.5387 201.32 16.1067 201.456 15.7307 201.728C15.3627 202 15.0747 202.396 14.8667 202.916C14.6587 203.436 14.5547 204.064 14.5547 204.8C14.5547 205.536 14.6587 206.164 14.8667 206.684C15.0747 207.204 15.3627 207.6 15.7307 207.872C16.1067 208.144 16.5387 208.28 17.0267 208.28Z" fill="#666666"/>
<path d="M20.0267 277.072C19.3787 277.072 18.7987 276.9 18.2867 276.556C17.7827 276.212 17.3867 275.72 17.0987 275.08C16.8187 274.432 16.6787 273.672 16.6787 272.8C16.6787 271.928 16.8187 271.172 17.0987 270.532C17.3867 269.884 17.7827 269.388 18.2867 269.044C18.7987 268.7 19.3787 268.528 20.0267 268.528C20.6747 268.528 21.2507 268.7 21.7547 269.044C22.2667 269.388 22.6667 269.884 22.9547 270.532C23.2427 271.172 23.3867 271.928 23.3867 272.8C23.3867 273.672 23.2427 274.432 22.9547 275.08C22.6667 275.72 22.2667 276.212 21.7547 276.556C21.2507 276.9 20.6747 277.072 20.0267 277.072ZM20.0267 276.28C20.5147 276.28 20.9427 276.144 21.3107 275.872C21.6867 275.6 21.9787 275.204 22.1867 274.684C22.3947 274.164 22.4987 273.536 22.4987 272.8C22.4987 272.064 22.3947 271.436 22.1867 270.916C21.9787 270.396 21.6867 270 21.3107 269.728C20.9427 269.456 20.5147 269.32 20.0267 269.32C19.5387 269.32 19.1067 269.456 18.7307 269.728C18.3627 270 18.0747 270.396 17.8667 270.916C17.6587 271.436 17.5547 272.064 17.5547 272.8C17.5547 273.536 17.6587 274.164 17.8667 274.684C18.0747 275.204 18.3627 275.6 18.7307 275.872C19.1067 276.144 19.5387 276.28 20.0267 276.28Z" fill="#666666"/>
<path d="M45.0571 296.072C44.5771 296.072 44.1331 295.968 43.7251 295.76C43.3171 295.552 42.9851 295.256 42.7291 294.872L43.2571 294.272C43.7211 294.96 44.3251 295.304 45.0691 295.304C46.1091 295.304 46.6291 294.688 46.6291 293.456V288.368H43.5571V287.6H47.5051V293.42C47.5051 294.3 47.2971 294.964 46.8811 295.412C46.4731 295.852 45.8651 296.072 45.0571 296.072ZM52.1968 289.64C53.0208 289.64 53.6528 289.848 54.0928 290.264C54.5328 290.672 54.7528 291.28 54.7528 292.088V296H53.9368V295.016C53.7448 295.344 53.4608 295.6 53.0848 295.784C52.7168 295.968 52.2768 296.06 51.7648 296.06C51.0608 296.06 50.5008 295.892 50.0848 295.556C49.6688 295.22 49.4608 294.776 49.4608 294.224C49.4608 293.688 49.6528 293.256 50.0368 292.928C50.4288 292.6 51.0488 292.436 51.8968 292.436H53.9008V292.052C53.9008 291.508 53.7488 291.096 53.4448 290.816C53.1408 290.528 52.6968 290.384 52.1128 290.384C51.7128 290.384 51.3288 290.452 50.9608 290.588C50.5928 290.716 50.2768 290.896 50.0128 291.128L49.6288 290.492C49.9488 290.22 50.3328 290.012 50.7808 289.868C51.2288 289.716 51.7008 289.64 52.1968 289.64ZM51.8968 295.388C52.3768 295.388 52.7888 295.28 53.1328 295.064C53.4768 294.84 53.7328 294.52 53.9008 294.104V293.072H51.9208C50.8408 293.072 50.3008 293.448 50.3008 294.2C50.3008 294.568 50.4408 294.86 50.7208 295.076C51.0008 295.284 51.3928 295.388 51.8968 295.388ZM60.2829 289.64C61.0749 289.64 61.7029 289.872 62.1669 290.336C62.6389 290.792 62.8749 291.46 62.8749 292.34V296H62.0229V292.424C62.0229 291.768 61.8589 291.268 61.5309 290.924C61.2029 290.58 60.7349 290.408 60.1269 290.408C59.4469 290.408 58.9069 290.612 58.5069 291.02C58.1149 291.42 57.9189 291.976 57.9189 292.688V296H57.0669V289.688H57.8829V290.852C58.1149 290.468 58.4349 290.172 58.8429 289.964C59.2589 289.748 59.7389 289.64 60.2829 289.64Z" fill="#666666"/>
<path d="M167.498 288.368V291.668H171.842V292.436H167.498V296H166.61V287.6H172.37V288.368H167.498ZM179.309 293.108H174.029C174.077 293.764 174.329 294.296 174.785 294.704C175.241 295.104 175.817 295.304 176.513 295.304C176.905 295.304 177.265 295.236 177.593 295.1C177.921 294.956 178.205 294.748 178.445 294.476L178.925 295.028C178.645 295.364 178.293 295.62 177.869 295.796C177.453 295.972 176.993 296.06 176.489 296.06C175.841 296.06 175.265 295.924 174.761 295.652C174.265 295.372 173.877 294.988 173.597 294.5C173.317 294.012 173.177 293.46 173.177 292.844C173.177 292.228 173.309 291.676 173.573 291.188C173.845 290.7 174.213 290.32 174.677 290.048C175.149 289.776 175.677 289.64 176.261 289.64C176.845 289.64 177.369 289.776 177.833 290.048C178.297 290.32 178.661 290.7 178.925 291.188C179.189 291.668 179.321 292.22 179.321 292.844L179.309 293.108ZM176.261 290.372C175.653 290.372 175.141 290.568 174.725 290.96C174.317 291.344 174.085 291.848 174.029 292.472H178.505C178.449 291.848 178.213 291.344 177.797 290.96C177.389 290.568 176.877 290.372 176.261 290.372ZM184.307 289.64C184.899 289.64 185.435 289.776 185.915 290.048C186.395 290.312 186.771 290.688 187.043 291.176C187.315 291.664 187.451 292.22 187.451 292.844C187.451 293.468 187.315 294.024 187.043 294.512C186.771 295 186.395 295.38 185.915 295.652C185.435 295.924 184.899 296.06 184.307 296.06C183.779 296.06 183.303 295.948 182.879 295.724C182.463 295.5 182.127 295.176 181.871 294.752V296H181.055V287.096H181.907V290.888C182.171 290.48 182.507 290.172 182.915 289.964C183.331 289.748 183.795 289.64 184.307 289.64ZM184.247 295.304C184.687 295.304 185.087 295.204 185.447 295.004C185.807 294.796 186.087 294.504 186.287 294.128C186.495 293.752 186.599 293.324 186.599 292.844C186.599 292.364 186.495 291.936 186.287 291.56C186.087 291.184 185.807 290.896 185.447 290.696C185.087 290.488 184.687 290.384 184.247 290.384C183.799 290.384 183.395 290.488 183.035 290.696C182.683 290.896 182.403 291.184 182.195 291.56C181.995 291.936 181.895 292.364 181.895 292.844C181.895 293.324 181.995 293.752 182.195 294.128C182.403 294.504 182.683 294.796 183.035 295.004C183.395 295.204 183.799 295.304 184.247 295.304Z" fill="#666666"/>
<path d="M298.737 287.6V296H297.885V289.28L294.585 294.932H294.165L290.865 289.316V296H290.013V287.6H290.745L294.393 293.828L298.005 287.6H298.737ZM303.501 289.64C304.325 289.64 304.957 289.848 305.397 290.264C305.837 290.672 306.057 291.28 306.057 292.088V296H305.241V295.016C305.049 295.344 304.765 295.6 304.389 295.784C304.021 295.968 303.581 296.06 303.069 296.06C302.365 296.06 301.805 295.892 301.389 295.556C300.973 295.22 300.765 294.776 300.765 294.224C300.765 293.688 300.957 293.256 301.341 292.928C301.733 292.6 302.353 292.436 303.201 292.436H305.205V292.052C305.205 291.508 305.053 291.096 304.749 290.816C304.445 290.528 304.001 290.384 303.417 290.384C303.017 290.384 302.633 290.452 302.265 290.588C301.897 290.716 301.581 290.896 301.317 291.128L300.933 290.492C301.253 290.22 301.637 290.012 302.085 289.868C302.533 289.716 303.005 289.64 303.501 289.64ZM303.201 295.388C303.681 295.388 304.093 295.28 304.437 295.064C304.781 294.84 305.037 294.52 305.205 294.104V293.072H303.225C302.145 293.072 301.605 293.448 301.605 294.2C301.605 294.568 301.745 294.86 302.025 295.076C302.305 295.284 302.697 295.388 303.201 295.388ZM309.188 290.924C309.388 290.5 309.684 290.18 310.076 289.964C310.476 289.748 310.968 289.64 311.552 289.64V290.468L311.348 290.456C310.684 290.456 310.164 290.66 309.788 291.068C309.412 291.476 309.224 292.048 309.224 292.784V296H308.372V289.688H309.188V290.924Z" fill="#666666"/>
<path d="M421.085 293.756H416.405L415.397 296H414.473L418.313 287.6H419.189L423.029 296H422.093L421.085 293.756ZM420.761 293.036L418.745 288.524L416.729 293.036H420.761ZM427.491 289.64C428.083 289.64 428.619 289.776 429.099 290.048C429.579 290.312 429.955 290.688 430.227 291.176C430.499 291.664 430.635 292.22 430.635 292.844C430.635 293.476 430.499 294.036 430.227 294.524C429.955 295.012 429.579 295.392 429.099 295.664C428.627 295.928 428.091 296.06 427.491 296.06C426.979 296.06 426.515 295.956 426.099 295.748C425.691 295.532 425.355 295.22 425.091 294.812V298.328H424.239V289.688H425.055V290.936C425.311 290.52 425.647 290.2 426.063 289.976C426.487 289.752 426.963 289.64 427.491 289.64ZM427.431 295.304C427.871 295.304 428.271 295.204 428.631 295.004C428.991 294.796 429.271 294.504 429.471 294.128C429.679 293.752 429.783 293.324 429.783 292.844C429.783 292.364 429.679 291.94 429.471 291.572C429.271 291.196 428.991 290.904 428.631 290.696C428.271 290.488 427.871 290.384 427.431 290.384C426.983 290.384 426.579 290.488 426.219 290.696C425.867 290.904 425.587 291.196 425.379 291.572C425.179 291.94 425.079 292.364 425.079 292.844C425.079 293.324 425.179 293.752 425.379 294.128C425.587 294.504 425.867 294.796 426.219 295.004C426.579 295.204 426.983 295.304 427.431 295.304ZM433.188 290.924C433.388 290.5 433.684 290.18 434.076 289.964C434.476 289.748 434.968 289.64 435.552 289.64V290.468L435.348 290.456C434.684 290.456 434.164 290.66 433.788 291.068C433.412 291.476 433.224 292.048 433.224 292.784V296H432.372V289.688H433.188V290.924Z" fill="#666666"/>
<path d="M545.166 287.6V296H544.314V289.28L541.014 294.932H540.594L537.294 289.316V296H536.442V287.6H537.174L540.822 293.828L544.434 287.6H545.166ZM549.931 289.64C550.755 289.64 551.387 289.848 551.827 290.264C552.267 290.672 552.487 291.28 552.487 292.088V296H551.671V295.016C551.479 295.344 551.195 295.6 550.819 295.784C550.451 295.968 550.011 296.06 549.499 296.06C548.795 296.06 548.235 295.892 547.819 295.556C547.403 295.22 547.195 294.776 547.195 294.224C547.195 293.688 547.387 293.256 547.771 292.928C548.163 292.6 548.783 292.436 549.631 292.436H551.635V292.052C551.635 291.508 551.483 291.096 551.179 290.816C550.875 290.528 550.431 290.384 549.847 290.384C549.447 290.384 549.063 290.452 548.695 290.588C548.327 290.716 548.011 290.896 547.747 291.128L547.363 290.492C547.683 290.22 548.067 290.012 548.515 289.868C548.963 289.716 549.435 289.64 549.931 289.64ZM549.631 295.388C550.111 295.388 550.523 295.28 550.867 295.064C551.211 294.84 551.467 294.52 551.635 294.104V293.072H549.655C548.575 293.072 548.035 293.448 548.035 294.2C548.035 294.568 548.175 294.86 548.455 295.076C548.735 295.284 549.127 295.388 549.631 295.388ZM559.988 289.688L556.832 296.756C556.576 297.348 556.28 297.768 555.944 298.016C555.608 298.264 555.204 298.388 554.732 298.388C554.428 298.388 554.144 298.34 553.88 298.244C553.616 298.148 553.388 298.004 553.196 297.812L553.592 297.176C553.912 297.496 554.296 297.656 554.744 297.656C555.032 297.656 555.276 297.576 555.476 297.416C555.684 297.256 555.876 296.984 556.052 296.6L556.328 295.988L553.508 289.688H554.396L556.772 295.052L559.148 289.688H559.988Z" fill="#666666"/>
<path d="M664.061 296.072C663.581 296.072 663.137 295.968 662.729 295.76C662.321 295.552 661.989 295.256 661.733 294.872L662.261 294.272C662.725 294.96 663.329 295.304 664.073 295.304C665.113 295.304 665.633 294.688 665.633 293.456V288.368H662.561V287.6H666.509V293.42C666.509 294.3 666.301 294.964 665.885 295.412C665.477 295.852 664.869 296.072 664.061 296.072ZM674.681 289.688V296H673.865V294.848C673.641 295.232 673.333 295.532 672.941 295.748C672.549 295.956 672.101 296.06 671.597 296.06C670.773 296.06 670.121 295.832 669.641 295.376C669.169 294.912 668.933 294.236 668.933 293.348V289.688H669.785V293.264C669.785 293.928 669.949 294.432 670.277 294.776C670.605 295.12 671.073 295.292 671.681 295.292C672.345 295.292 672.869 295.092 673.253 294.692C673.637 294.284 673.829 293.72 673.829 293V289.688H674.681ZM680.283 289.64C681.075 289.64 681.703 289.872 682.167 290.336C682.639 290.792 682.875 291.46 682.875 292.34V296H682.023V292.424C682.023 291.768 681.859 291.268 681.531 290.924C681.203 290.58 680.735 290.408 680.127 290.408C679.447 290.408 678.907 290.612 678.507 291.02C678.115 291.42 677.919 291.976 677.919 292.688V296H677.067V289.688H677.883V290.852C678.115 290.468 678.435 290.172 678.843 289.964C679.259 289.748 679.739 289.64 680.283 289.64Z" fill="#666666"/>
<line opacity="0.5" x1="30" y1="7.5" x2="702" y2="7.49994" stroke="#999999"/>
<line opacity="0.5" x1="30" y1="73.5" x2="702" y2="73.4999" stroke="#999999"/>
<line opacity="0.5" x1="30" y1="139.5" x2="702" y2="139.5" stroke="#999999"/>
<line opacity="0.5" x1="30" y1="205.5" x2="702" y2="205.5" stroke="#999999"/>
<line opacity="0.5" x1="30" y1="271.5" x2="702" y2="271.5" stroke="#999999"/>
<path d="M53 107.985L58.1667 130.699C63.3333 153.413 73.6667 198.841 84 232.482C94.3333 266.123 104.667 287.976 115 257.383C125.333 226.79 135.667 143.75 146 115.76C156.333 87.769 166.667 114.827 177 124.887C187.333 134.948 197.667 128.012 208 147.56C218.333 167.107 228.667 213.137 239 207.612C249.333 202.088 259.667 145.008 270 139.961C280.333 134.915 290.667 181.901 301 170.096C311.333 158.291 321.667 87.6956 332 54.3343C342.333 20.9731 352.667 24.8461 363 56.6477C373.333 88.4492 383.667 148.179 394 156.541C404.333 164.903 414.667 121.896 425 115.423C435.333 108.951 445.667 139.013 456 146.977C466.333 154.941 476.667 140.807 487 155.205C497.333 169.602 507.667 212.53 518 234.582C528.333 256.634 538.667 257.811 549 227.327C559.333 196.843 569.667 134.699 580 140.531C590.333 146.363 600.667 220.171 611 224.922C621.333 229.673 631.667 165.366 642 126.274C652.333 87.1824 662.667 73.3054 667.833 66.3669L673 59.4284" stroke="#F14040" stroke-width="5"/>
<circle cx="55" cy="113" r="6.5" fill="white" stroke="#F14040" stroke-width="3"/>
<circle cx="178" cy="126" r="6.5" fill="white" stroke="#F14040" stroke-width="3"/>
<circle cx="298" cy="170" r="6.5" fill="white" stroke="#F14040" stroke-width="3"/>
<circle cx="426" cy="115" r="6.5" fill="white" stroke="#F14040" stroke-width="3"/>
<circle cx="548" cy="229" r="6.5" fill="white" stroke="#F14040" stroke-width="3"/>
<circle cx="672" cy="61" r="6.5" fill="white" stroke="#F14040" stroke-width="3"/>
</svg>
