<svg width="24" height="24" viewBox="0 0 24 24" fill="none" xmlns="http://www.w3.org/2000/svg">
<path d="M12.0003 0.125C13.4704 0.12455 14.902 0.595364 16.0849 1.46834C17.2677 2.34131 18.1396 3.57047 18.5725 4.9754C19.0055 6.38033 18.9767 7.88705 18.4903 9.27439C18.004 10.6617 17.0857 11.8567 15.8703 12.6837C17.9799 13.4575 19.8096 14.8449 21.1239 16.6674C22.4383 18.4899 23.1771 20.664 23.2453 22.91C23.2517 23.0347 23.2331 23.1593 23.1906 23.2767C23.1482 23.3941 23.0827 23.5018 22.9981 23.5936C22.9134 23.6853 22.8113 23.7593 22.6977 23.811C22.5841 23.8628 22.4613 23.8913 22.3365 23.895C22.2118 23.8986 22.0875 23.8773 21.9711 23.8323C21.8546 23.7873 21.7484 23.7195 21.6585 23.6329C21.5686 23.5463 21.4969 23.4426 21.4476 23.3279C21.3984 23.2132 21.3725 23.0898 21.3716 22.965C21.2971 20.5293 20.2772 18.2183 18.528 16.5218C16.7788 14.8252 14.4377 13.8764 12.0009 13.8764C9.56411 13.8764 7.22305 14.8252 5.47384 16.5218C3.72463 18.2183 2.70474 20.5293 2.63031 22.965C2.62285 23.2136 2.51692 23.4491 2.33583 23.6197C2.15474 23.7902 1.91332 23.8818 1.66468 23.8744C1.41604 23.8669 1.18055 23.761 1.01001 23.5799C0.839464 23.3988 0.747846 23.1574 0.755305 22.9087C0.82374 20.663 1.56267 18.4891 2.87701 16.6669C4.19134 14.8446 6.02093 13.4574 8.13031 12.6837C6.91491 11.8567 5.99665 10.6617 5.51031 9.27439C5.02396 7.88705 4.99514 6.38033 5.42807 4.9754C5.861 3.57047 6.73289 2.34131 7.91576 1.46834C9.09863 0.595364 10.5302 0.12455 12.0003 0.125ZM7.00031 7C7.00031 8.32608 7.52709 9.59785 8.46477 10.5355C9.40245 11.4732 10.6742 12 12.0003 12C13.3264 12 14.5982 11.4732 15.5358 10.5355C16.4735 9.59785 17.0003 8.32608 17.0003 7C17.0003 5.67392 16.4735 4.40215 15.5358 3.46447C14.5982 2.52678 13.3264 2 12.0003 2C10.6742 2 9.40245 2.52678 8.46477 3.46447C7.52709 4.40215 7.00031 5.67392 7.00031 7Z" fill="#121212"/>
</svg>
