<svg width="263" height="107" viewBox="0 0 263 107" fill="none" xmlns="http://www.w3.org/2000/svg">
<circle cx="53.0801" cy="53.0791" r="53.0801" fill="#B40001"/>
<path d="M28.3822 31.626L38.5118 31.626L37.4151 103.981L32.6634 102.144L28.3822 100.061L28.3822 31.626Z" fill="#121212"/>
<path d="M79.1921 31.4287H69.0649L70.1614 103.418L74.9119 101.591L79.1921 99.5183V31.4287Z" fill="#121212"/>
<path d="M16.2742 51.8975H89.7506V55.9057C89.7506 59.6422 86.7216 62.6711 82.9852 62.6711H23.0396C19.3032 62.6711 16.2742 59.6421 16.2742 55.9057V51.8975Z" fill="#121212"/>
<path d="M6.57751 31.4287H99.662V35.437C99.662 39.1734 96.633 42.2024 92.8966 42.2024H13.3429C9.6065 42.2024 6.57751 39.1734 6.57751 35.437V31.4287Z" fill="#121212"/>
<path d="M137.613 44.8172L137.436 40.9151L146.735 31.2612H150.435L142.707 39.4708L140.882 41.4725L137.613 44.8172ZM134.674 48.998V31.2612H137.968V48.998H134.674ZM147.039 48.998L140.249 40.9151L142.428 38.5079L150.891 48.998H147.039ZM169.875 49.2514C168.49 49.2514 167.215 49.0234 166.049 48.5673C164.884 48.1112 163.87 47.4777 163.009 46.6669C162.147 45.8392 161.48 44.8763 161.007 43.7783C160.534 42.6634 160.298 41.4472 160.298 40.1296C160.298 38.812 160.534 37.6042 161.007 36.5062C161.48 35.3913 162.147 34.4285 163.009 33.6176C163.87 32.7899 164.884 32.148 166.049 31.6919C167.215 31.2358 168.482 31.0078 169.85 31.0078C171.235 31.0078 172.502 31.2358 173.651 31.6919C174.816 32.148 175.83 32.7899 176.691 33.6176C177.553 34.4285 178.22 35.3913 178.693 36.5062C179.166 37.6042 179.403 38.812 179.403 40.1296C179.403 41.4472 179.166 42.6634 178.693 43.7783C178.22 44.8932 177.553 45.8561 176.691 46.6669C175.83 47.4777 174.816 48.1112 173.651 48.5673C172.502 49.0234 171.244 49.2514 169.875 49.2514ZM169.85 46.3629C170.745 46.3629 171.573 46.2108 172.333 45.9068C173.093 45.6027 173.752 45.1719 174.31 44.6145C174.867 44.0402 175.298 43.3814 175.602 42.6381C175.923 41.878 176.083 41.0418 176.083 40.1296C176.083 39.2174 175.923 38.3897 175.602 37.6464C175.298 36.8863 174.867 36.2275 174.31 35.67C173.752 35.0957 173.093 34.6565 172.333 34.3525C171.573 34.0484 170.745 33.8964 169.85 33.8964C168.955 33.8964 168.127 34.0484 167.367 34.3525C166.624 34.6565 165.965 35.0957 165.391 35.67C164.833 36.2275 164.394 36.8863 164.073 37.6464C163.769 38.3897 163.617 39.2174 163.617 40.1296C163.617 41.0249 163.769 41.8526 164.073 42.6128C164.394 43.3729 164.833 44.0402 165.391 44.6145C165.948 45.1719 166.607 45.6027 167.367 45.9068C168.127 46.2108 168.955 46.3629 169.85 46.3629ZM195.535 48.998V41.9793L196.27 44.0064L188.567 31.2612H192.089L198.271 41.5232H196.295L202.528 31.2612H205.772L198.069 44.0064L198.829 41.9793V48.998H195.535ZM220.304 48.998V34.0484H214.425V31.2612H229.476V34.0484H223.598V48.998H220.304ZM237.599 48.998L245.58 31.2612H248.824L256.83 48.998H253.384L246.518 33.0095H247.835L240.994 48.998H237.599ZM241.273 44.8932L242.16 42.3087H251.737L252.624 44.8932H241.273Z" fill="#B40001"/>
<path d="M130.123 74.9971L135.825 62.3279H138.141L143.861 74.9971H141.399L136.494 63.5767H137.435L132.549 74.9971H130.123ZM132.748 72.0651L133.381 70.219H140.223L140.856 72.0651H132.748ZM149.996 74.9971V62.3279H155.209C156.331 62.3279 157.29 62.5089 158.087 62.8708C158.895 63.2328 159.516 63.7516 159.951 64.4273C160.385 65.103 160.602 65.9054 160.602 66.8345C160.602 67.7636 160.385 68.5659 159.951 69.2416C159.516 69.9173 158.895 70.4362 158.087 70.7981C157.29 71.1601 156.331 71.3411 155.209 71.3411H151.3L152.349 70.2371V74.9971H149.996ZM152.349 70.4905L151.3 69.3502H155.1C156.138 69.3502 156.916 69.133 157.435 68.6987C157.966 68.2522 158.231 67.6308 158.231 66.8345C158.231 66.0261 157.966 65.4047 157.435 64.9703C156.916 64.5359 156.138 64.3187 155.1 64.3187H151.3L152.349 63.1604V70.4905ZM173.59 75.1781C172.6 75.1781 171.69 75.0152 170.857 74.6894C170.024 74.3636 169.3 73.9111 168.685 73.332C168.07 72.7407 167.593 72.053 167.255 71.2687C166.917 70.4724 166.749 69.6036 166.749 68.6625C166.749 67.7213 166.917 66.8586 167.255 66.0743C167.593 65.278 168.07 64.5902 168.685 64.0111C169.3 63.4198 170.024 62.9613 170.857 62.6355C171.69 62.3098 172.594 62.1469 173.572 62.1469C174.561 62.1469 175.466 62.3098 176.287 62.6355C177.119 62.9613 177.843 63.4198 178.458 64.0111C179.074 64.5902 179.55 65.278 179.888 66.0743C180.226 66.8586 180.395 67.7213 180.395 68.6625C180.395 69.6036 180.226 70.4724 179.888 71.2687C179.55 72.0651 179.074 72.7528 178.458 73.332C177.843 73.9111 177.119 74.3636 176.287 74.6894C175.466 75.0152 174.567 75.1781 173.59 75.1781ZM173.572 73.1148C174.211 73.1148 174.803 73.0062 175.345 72.789C175.888 72.5718 176.359 72.2641 176.757 71.866C177.155 71.4557 177.463 70.9852 177.68 70.4543C177.909 69.9113 178.024 69.314 178.024 68.6625C178.024 68.0109 177.909 67.4197 177.68 66.8888C177.463 66.3458 177.155 65.8752 176.757 65.4771C176.359 65.0668 175.888 64.7531 175.345 64.5359C174.803 64.3187 174.211 64.2101 173.572 64.2101C172.932 64.2101 172.341 64.3187 171.798 64.5359C171.267 64.7531 170.797 65.0668 170.386 65.4771C169.988 65.8752 169.674 66.3458 169.445 66.8888C169.228 67.4197 169.119 68.0109 169.119 68.6625C169.119 69.302 169.228 69.8932 169.445 70.4362C169.674 70.9791 169.988 71.4557 170.386 71.866C170.785 72.2641 171.255 72.5718 171.798 72.789C172.341 73.0062 172.932 73.1148 173.572 73.1148ZM189.807 74.9971V64.3187H185.608V62.3279H196.359V64.3187H192.16V74.9971H189.807ZM204.821 67.5946H211.12V69.5312H204.821V67.5946ZM205.002 73.0243H212.151V74.9971H202.649V62.3279H211.898V64.3006H205.002V73.0243ZM221.398 72.0108L221.272 69.2235L227.914 62.3279H230.556L225.036 68.1919L223.733 69.6217L221.398 72.0108ZM219.299 74.9971V62.3279H221.652V74.9971H219.299ZM228.131 74.9971L223.281 69.2235L224.837 67.5041L230.882 74.9971H228.131Z" fill="#121212"/>
</svg>
