<svg width="20" height="20" viewBox="0 0 20 20" fill="none" xmlns="http://www.w3.org/2000/svg">
<path d="M5.78125 20C4.17542 20 2.81042 19.4379 1.68625 18.3137C0.562083 17.1887 0 15.8238 0 14.2188C0 13.4412 0.149166 12.6975 0.4475 11.9875C0.745 11.2775 1.16333 10.6533 1.7025 10.115L10.115 1.7025C10.6533 1.16333 11.2775 0.745 11.9875 0.4475C12.6975 0.149166 13.4412 0 14.2188 0C15.8246 0 17.1896 0.562083 18.3137 1.68625C19.4379 2.81125 20 4.17625 20 5.78125C20 6.55875 19.8508 7.3025 19.5525 8.0125C19.255 8.7225 18.8367 9.34667 18.2975 9.885L9.885 18.2975C9.34667 18.8367 8.7225 19.255 8.0125 19.5525C7.3025 19.8508 6.55875 20 5.78125 20ZM13.6613 12.745L17.4375 9C17.8542 8.58333 18.1771 8.09375 18.4062 7.53125C18.6354 6.96875 18.75 6.38542 18.75 5.78125C18.75 4.53125 18.3071 3.46333 17.4212 2.5775C16.5354 1.69167 15.4679 1.24917 14.2188 1.25C13.6146 1.25 13.0312 1.36458 12.4688 1.59375C11.9063 1.82292 11.4167 2.14583 11 2.5625L7.255 6.33875L13.6613 12.745ZM5.78125 18.75C6.38542 18.75 6.96875 18.6354 7.53125 18.4062C8.09375 18.1771 8.58333 17.8542 9 17.4375L12.745 13.6613L6.33875 7.255L2.5625 11C2.14583 11.4167 1.82292 11.9063 1.59375 12.4688C1.36458 13.0312 1.25 13.6146 1.25 14.2188C1.25 15.4688 1.69292 16.5367 2.57875 17.4225C3.46458 18.3083 4.53167 18.7508 5.78 18.75H5.78125Z" fill="black"/>
</svg>
