<svg width="441" height="367" viewBox="0 0 441 367" fill="none" xmlns="http://www.w3.org/2000/svg">
<path d="M298.989 0.084505C316.466 -0.206081 332.532 2.82893 348.117 8.51149C357.705 11.9985 366.78 16.6479 375.406 22.1044C386.085 28.8525 395.513 37.1503 404.043 46.4168C411.194 54.198 417.223 62.8187 422.482 71.9883C423.572 73.8933 423.54 73.9256 421.552 74.8942C412.413 79.3175 403.305 83.7732 394.166 88.1643C386.919 91.6836 379.639 95.1706 372.36 98.6576C366.876 101.273 361.361 103.856 355.877 106.536C354.947 106.988 354.466 106.859 353.953 106.019C351.131 101.434 347.604 97.3984 343.659 93.75C334.937 85.7427 324.803 80.4476 313.259 77.8646C307.07 76.4763 300.784 76.2825 294.499 76.67C288.759 76.9929 283.147 78.2844 277.76 80.383C276.669 80.8028 276.253 80.5445 275.836 79.6081C272.404 71.9238 268.973 64.2394 265.51 56.5873C263.137 51.3245 260.732 46.0616 258.327 40.7665C254.03 31.2418 249.732 21.717 245.403 12.2245C244.954 11.2236 245.339 10.8685 246.141 10.5779C252.138 8.15633 258.198 6.05766 264.452 4.44329C270.833 2.79664 277.311 1.60201 283.853 0.8594C289.176 0.181367 294.499 -0.173793 298.989 0.084505Z" fill="#36A2EB"/>
<path d="M289.677 244.411C289.677 256.761 289.677 269.111 289.709 281.428C289.709 282.566 289.645 283.086 288.24 282.988C281.249 282.598 274.385 281.461 267.553 279.933C254.719 277.073 242.619 272.263 231.094 265.926C224.709 262.416 218.675 258.321 212.929 253.771C209.992 251.463 207.119 249.091 204.373 246.556C197.86 240.608 191.986 234.011 186.655 226.893C182.696 221.595 179.152 216.038 175.96 210.253C171.363 201.868 167.691 193.125 164.786 183.993C162.615 177.103 161.115 170.083 159.838 162.965C159.646 161.893 159.901 161.438 161.115 161.405C167.532 161.178 173.948 160.95 180.333 160.723C186.144 160.528 191.986 160.3 197.796 160.073C203.671 159.845 209.545 159.65 215.419 159.423C221.229 159.195 227.072 158.838 232.914 158.838C234.031 158.838 235.34 157.83 236.202 158.903C236.873 159.715 236.969 160.983 237.352 162.055C240.001 169.92 244.024 176.94 249.324 183.245C257.273 192.735 267.074 199.365 278.695 203.233C281.951 204.305 285.303 205.215 288.719 205.573C289.805 205.67 289.709 206.32 289.709 207.035C289.709 211.423 289.709 215.81 289.709 220.198C289.677 228.291 289.677 236.351 289.677 244.411Z" fill="#FFCD56"/>
<path d="M309.322 244.763C309.322 232.807 309.355 220.851 309.29 208.895C309.29 207.325 309.581 206.684 311.393 206.363C319.094 204.953 326.374 202.26 333.072 198.125C343.232 191.907 351.192 183.669 356.822 173.252C358.31 170.496 358.343 170.496 361.513 171.425C376.592 175.784 391.67 180.176 406.748 184.535C414.837 186.875 422.894 189.247 431.015 191.522C432.212 191.843 432.277 192.292 431.889 193.253C428.977 200.497 425.644 207.517 421.6 214.216C417.846 220.434 413.737 226.428 409.078 231.974C404.127 237.871 398.788 243.384 392.932 248.449C387.755 252.936 382.319 257.103 376.527 260.789C364.684 268.386 352.001 274.188 338.379 277.97C331.648 279.829 324.854 281.239 317.962 282.265C315.697 282.618 313.367 282.714 311.102 282.97C309.678 283.13 309.29 282.65 309.29 281.207C309.355 269.091 309.322 256.911 309.322 244.763Z" fill="#FF9F40"/>
<path d="M158.099 139.799C158.389 133.049 158.905 126.332 159.936 119.647C161.29 110.908 163.482 102.397 166.416 94.1149C171.154 80.6477 177.891 68.2567 186.305 56.7786C191.817 49.2462 198.135 42.4637 204.904 36.1377C211.513 29.9748 218.733 24.5293 226.502 19.8989C227.566 19.2794 227.856 19.6054 228.275 20.4859C231.176 26.9423 234.077 33.3987 237.011 39.855C239.461 45.3332 241.91 50.8114 244.36 56.2895C248.39 65.3219 252.451 74.3544 256.481 83.3868C257.351 85.3107 258.221 87.2346 259.156 89.1258C259.608 90.0062 259.608 90.4954 258.705 91.2779C247.616 100.506 240.202 112.18 236.495 126.201C235.27 130.799 234.722 135.527 234.496 140.288C234.432 141.266 234.174 141.592 233.175 141.592C228.565 141.657 223.955 141.723 219.346 141.918C212.995 142.212 206.613 142.375 200.23 142.603C194.621 142.799 189.012 143.027 183.371 143.223C177.279 143.451 171.186 143.712 165.062 143.907C163.16 143.973 161.226 144.07 159.292 144.168C158.292 144.201 157.97 143.81 158.002 142.831C158.131 141.886 158.099 140.842 158.099 139.799Z" fill="#4BC0C0"/>
<path d="M441 142.393C440.968 151.556 439.842 161.628 437.783 171.636C437.558 172.741 437.14 172.773 436.272 172.513C431.318 171.019 426.333 169.589 421.379 168.127C411.247 165.138 401.115 162.148 390.983 159.159C382.427 156.625 373.903 154.025 365.347 151.588C364.061 151.231 364.029 150.549 364.189 149.606C364.543 147.364 364.704 145.122 364.768 142.848C364.929 136.837 364.125 130.923 362.774 125.075C362.549 124.165 362.742 123.807 363.482 123.45C372.134 119.291 380.787 115.132 389.407 110.973C392.173 109.641 394.907 108.309 397.641 106.976C404.878 103.467 412.116 99.9905 419.353 96.4813C423.02 94.7268 426.686 92.9722 430.289 91.0876C431.511 90.4703 431.833 90.7627 432.283 91.9649C435.532 100.738 437.783 109.771 439.263 118.966C440.003 123.645 440.485 128.356 440.71 133.1C440.839 135.83 440.903 138.559 441 142.393Z" fill="#FF6384"/>
<path d="M35.024 239.096C34.3947 239.096 33.8027 238.957 33.248 238.68C32.704 238.403 32.2667 238.008 31.936 237.496L32.624 236.696C32.9333 237.144 33.2907 237.485 33.696 237.72C34.1013 237.955 34.5493 238.072 35.04 238.072C36.4267 238.072 37.12 237.251 37.12 235.608V228.824H33.024V227.8H38.288V235.56C38.288 236.744 38.0107 237.629 37.456 238.216C36.912 238.803 36.1013 239.096 35.024 239.096ZM46.8636 239V237.144L46.8156 236.84V233.736C46.8156 233.021 46.613 232.472 46.2076 232.088C45.813 231.704 45.221 231.512 44.4316 231.512C43.8876 231.512 43.3703 231.603 42.8796 231.784C42.389 231.965 41.973 232.205 41.6316 232.504L41.1196 231.656C41.5463 231.293 42.0583 231.016 42.6556 230.824C43.253 230.621 43.8823 230.52 44.5436 230.52C45.6316 230.52 46.469 230.792 47.0556 231.336C47.653 231.869 47.9516 232.685 47.9516 233.784V239H46.8636ZM43.9676 239.08C43.3383 239.08 42.789 238.979 42.3196 238.776C41.861 238.563 41.509 238.275 41.2636 237.912C41.0183 237.539 40.8956 237.112 40.8956 236.632C40.8956 236.195 40.997 235.8 41.1996 235.448C41.413 235.085 41.7543 234.797 42.2236 234.584C42.7036 234.36 43.3436 234.248 44.1436 234.248H47.0396V235.096H44.1756C43.365 235.096 42.7996 235.24 42.4796 235.528C42.1703 235.816 42.0156 236.173 42.0156 236.6C42.0156 237.08 42.2023 237.464 42.5756 237.752C42.949 238.04 43.4716 238.184 44.1436 238.184C44.7836 238.184 45.333 238.04 45.7916 237.752C46.261 237.453 46.6023 237.027 46.8156 236.472L47.0716 237.256C46.8583 237.811 46.485 238.253 45.9516 238.584C45.429 238.915 44.7676 239.08 43.9676 239.08ZM55.3251 230.52C56.0078 230.52 56.6051 230.653 57.1171 230.92C57.6398 231.176 58.0451 231.571 58.3331 232.104C58.6318 232.637 58.7811 233.309 58.7811 234.12V239H57.6451V234.232C57.6451 233.347 57.4211 232.68 56.9731 232.232C56.5358 231.773 55.9171 231.544 55.1171 231.544C54.5198 231.544 53.9971 231.667 53.5491 231.912C53.1118 232.147 52.7705 232.493 52.5251 232.952C52.2905 233.4 52.1731 233.944 52.1731 234.584V239H51.0371V230.6H52.1251V232.904L51.9491 232.472C52.2158 231.864 52.6425 231.389 53.2291 231.048C53.8158 230.696 54.5145 230.52 55.3251 230.52ZM65.3216 239.08C64.607 239.08 63.983 238.947 63.4496 238.68C62.9163 238.413 62.5003 238.013 62.2016 237.48C61.9136 236.947 61.7696 236.28 61.7696 235.48V230.6H62.9056V235.352C62.9056 236.248 63.1243 236.925 63.5616 237.384C64.0096 237.832 64.6336 238.056 65.4336 238.056C66.0203 238.056 66.527 237.939 66.9536 237.704C67.391 237.459 67.7216 237.107 67.9456 236.648C68.1803 236.189 68.2976 235.64 68.2976 235V230.6H69.4336V239H68.3456V236.696L68.5216 237.112C68.255 237.731 67.839 238.216 67.2736 238.568C66.719 238.909 66.0683 239.08 65.3216 239.08ZM77.8636 239V237.144L77.8156 236.84V233.736C77.8156 233.021 77.613 232.472 77.2076 232.088C76.813 231.704 76.221 231.512 75.4316 231.512C74.8876 231.512 74.3703 231.603 73.8796 231.784C73.389 231.965 72.973 232.205 72.6316 232.504L72.1196 231.656C72.5463 231.293 73.0583 231.016 73.6556 230.824C74.253 230.621 74.8823 230.52 75.5436 230.52C76.6316 230.52 77.469 230.792 78.0556 231.336C78.653 231.869 78.9516 232.685 78.9516 233.784V239H77.8636ZM74.9676 239.08C74.3383 239.08 73.789 238.979 73.3196 238.776C72.861 238.563 72.509 238.275 72.2636 237.912C72.0183 237.539 71.8956 237.112 71.8956 236.632C71.8956 236.195 71.997 235.8 72.1996 235.448C72.413 235.085 72.7543 234.797 73.2236 234.584C73.7036 234.36 74.3436 234.248 75.1436 234.248H78.0396V235.096H75.1756C74.365 235.096 73.7996 235.24 73.4796 235.528C73.1703 235.816 73.0156 236.173 73.0156 236.6C73.0156 237.08 73.2023 237.464 73.5756 237.752C73.949 238.04 74.4716 238.184 75.1436 238.184C75.7836 238.184 76.333 238.04 76.7916 237.752C77.261 237.453 77.6023 237.027 77.8156 236.472L78.0716 237.256C77.8583 237.811 77.485 238.253 76.9516 238.584C76.429 238.915 75.7676 239.08 74.9676 239.08ZM82.0371 239V230.6H83.1251V232.888L83.0131 232.488C83.2478 231.848 83.6425 231.363 84.1971 231.032C84.7518 230.691 85.4398 230.52 86.2611 230.52V231.624C86.2185 231.624 86.1758 231.624 86.1331 231.624C86.0905 231.613 86.0478 231.608 86.0051 231.608C85.1198 231.608 84.4265 231.88 83.9251 232.424C83.4238 232.957 83.1731 233.72 83.1731 234.712V239H82.0371ZM88.7574 242.184C88.3627 242.184 87.984 242.12 87.6214 241.992C87.2694 241.864 86.9654 241.672 86.7094 241.416L87.2374 240.568C87.4507 240.771 87.68 240.925 87.9254 241.032C88.1814 241.149 88.464 241.208 88.7734 241.208C89.1467 241.208 89.4667 241.101 89.7334 240.888C90.0107 240.685 90.272 240.323 90.5174 239.8L91.0614 238.568L91.1894 238.392L94.6454 230.6H95.7654L91.5574 240.008C91.3227 240.552 91.0614 240.984 90.7734 241.304C90.496 241.624 90.192 241.848 89.8614 241.976C89.5307 242.115 89.1627 242.184 88.7574 242.184ZM90.9974 239.24L87.1254 230.6H88.3094L91.7334 238.312L90.9974 239.24Z" fill="#333333"/>
<rect y="225" width="17" height="17" fill="#FF6384"/>
<path d="M32.88 264.224H38.8V265.248H32.88V264.224ZM33.008 270H31.824V258.8H39.504V259.824H33.008V270ZM44.9958 270.08C44.1211 270.08 43.3531 269.899 42.6918 269.536C42.0304 269.163 41.5131 268.656 41.1398 268.016C40.7664 267.365 40.5798 266.624 40.5798 265.792C40.5798 264.96 40.7558 264.224 41.1078 263.584C41.4704 262.944 41.9611 262.443 42.5798 262.08C43.2091 261.707 43.9131 261.52 44.6918 261.52C45.4811 261.52 46.1798 261.701 46.7878 262.064C47.4064 262.416 47.8918 262.917 48.2438 263.568C48.5958 264.208 48.7718 264.949 48.7718 265.792C48.7718 265.845 48.7664 265.904 48.7558 265.968C48.7558 266.021 48.7558 266.08 48.7558 266.144H41.4438V265.296H48.1478L47.6998 265.632C47.6998 265.024 47.5664 264.485 47.2998 264.016C47.0438 263.536 46.6918 263.163 46.2438 262.896C45.7958 262.629 45.2784 262.496 44.6918 262.496C44.1158 262.496 43.5984 262.629 43.1398 262.896C42.6811 263.163 42.3238 263.536 42.0678 264.016C41.8118 264.496 41.6838 265.045 41.6838 265.664V265.84C41.6838 266.48 41.8224 267.045 42.0998 267.536C42.3878 268.016 42.7824 268.395 43.2838 268.672C43.7958 268.939 44.3771 269.072 45.0278 269.072C45.5398 269.072 46.0144 268.981 46.4518 268.8C46.8998 268.619 47.2838 268.341 47.6038 267.968L48.2438 268.704C47.8704 269.152 47.4011 269.493 46.8358 269.728C46.2811 269.963 45.6678 270.08 44.9958 270.08ZM55.42 270.08C54.684 270.08 54.0227 269.915 53.436 269.584C52.8493 269.243 52.3853 268.752 52.044 268.112C51.7027 267.472 51.532 266.699 51.532 265.792C51.532 264.875 51.7027 264.101 52.044 263.472C52.396 262.832 52.8653 262.347 53.452 262.016C54.0387 261.685 54.6947 261.52 55.42 261.52C56.22 261.52 56.9347 261.701 57.564 262.064C58.204 262.416 58.7053 262.912 59.068 263.552C59.4307 264.192 59.612 264.939 59.612 265.792C59.612 266.635 59.4307 267.381 59.068 268.032C58.7053 268.672 58.204 269.173 57.564 269.536C56.9347 269.899 56.22 270.08 55.42 270.08ZM51.084 270V258.128H52.22V264.08L52.06 265.776L52.172 267.472V270H51.084ZM55.34 269.072C55.9373 269.072 56.4707 268.939 56.94 268.672C57.4093 268.395 57.7827 268.011 58.06 267.52C58.3373 267.019 58.476 266.443 58.476 265.792C58.476 265.131 58.3373 264.555 58.06 264.064C57.7827 263.573 57.4093 263.195 56.94 262.928C56.4707 262.651 55.9373 262.512 55.34 262.512C54.7427 262.512 54.204 262.651 53.724 262.928C53.2547 263.195 52.8813 263.573 52.604 264.064C52.3373 264.555 52.204 265.131 52.204 265.792C52.204 266.443 52.3373 267.019 52.604 267.52C52.8813 268.011 53.2547 268.395 53.724 268.672C54.204 268.939 54.7427 269.072 55.34 269.072ZM61.9278 270V261.6H63.0158V263.888L62.9038 263.488C63.1384 262.848 63.5331 262.363 64.0878 262.032C64.6424 261.691 65.3304 261.52 66.1518 261.52V262.624C66.1091 262.624 66.0664 262.624 66.0238 262.624C65.9811 262.613 65.9384 262.608 65.8958 262.608C65.0104 262.608 64.3171 262.88 63.8158 263.424C63.3144 263.957 63.0638 264.72 63.0638 265.712V270H61.9278ZM71.8216 270.08C71.107 270.08 70.483 269.947 69.9496 269.68C69.4163 269.413 69.0003 269.013 68.7016 268.48C68.4136 267.947 68.2696 267.28 68.2696 266.48V261.6H69.4056V266.352C69.4056 267.248 69.6243 267.925 70.0616 268.384C70.5096 268.832 71.1336 269.056 71.9336 269.056C72.5203 269.056 73.027 268.939 73.4536 268.704C73.891 268.459 74.2216 268.107 74.4456 267.648C74.6803 267.189 74.7976 266.64 74.7976 266V261.6H75.9336V270H74.8456V267.696L75.0216 268.112C74.755 268.731 74.339 269.216 73.7736 269.568C73.219 269.909 72.5683 270.08 71.8216 270.08ZM84.3636 270V268.144L84.3156 267.84V264.736C84.3156 264.021 84.113 263.472 83.7076 263.088C83.313 262.704 82.721 262.512 81.9316 262.512C81.3876 262.512 80.8703 262.603 80.3796 262.784C79.889 262.965 79.473 263.205 79.1316 263.504L78.6196 262.656C79.0463 262.293 79.5583 262.016 80.1556 261.824C80.753 261.621 81.3823 261.52 82.0436 261.52C83.1316 261.52 83.969 261.792 84.5556 262.336C85.153 262.869 85.4516 263.685 85.4516 264.784V270H84.3636ZM81.4676 270.08C80.8383 270.08 80.289 269.979 79.8196 269.776C79.361 269.563 79.009 269.275 78.7636 268.912C78.5183 268.539 78.3956 268.112 78.3956 267.632C78.3956 267.195 78.497 266.8 78.6996 266.448C78.913 266.085 79.2543 265.797 79.7236 265.584C80.2036 265.36 80.8436 265.248 81.6436 265.248H84.5396V266.096H81.6756C80.865 266.096 80.2996 266.24 79.9796 266.528C79.6703 266.816 79.5156 267.173 79.5156 267.6C79.5156 268.08 79.7023 268.464 80.0756 268.752C80.449 269.04 80.9716 269.184 81.6436 269.184C82.2836 269.184 82.833 269.04 83.2916 268.752C83.761 268.453 84.1023 268.027 84.3156 267.472L84.5716 268.256C84.3583 268.811 83.985 269.253 83.4516 269.584C82.929 269.915 82.2676 270.08 81.4676 270.08ZM88.5371 270V261.6H89.6251V263.888L89.5131 263.488C89.7478 262.848 90.1425 262.363 90.6971 262.032C91.2518 261.691 91.9398 261.52 92.7611 261.52V262.624C92.7185 262.624 92.6758 262.624 92.6331 262.624C92.5905 262.613 92.5478 262.608 92.5051 262.608C91.6198 262.608 90.9265 262.88 90.4251 263.424C89.9238 263.957 89.6731 264.72 89.6731 265.712V270H88.5371ZM95.2574 273.184C94.8627 273.184 94.484 273.12 94.1214 272.992C93.7694 272.864 93.4654 272.672 93.2094 272.416L93.7374 271.568C93.9507 271.771 94.18 271.925 94.4254 272.032C94.6814 272.149 94.964 272.208 95.2734 272.208C95.6467 272.208 95.9667 272.101 96.2334 271.888C96.5107 271.685 96.772 271.323 97.0174 270.8L97.5614 269.568L97.6894 269.392L101.145 261.6H102.265L98.0574 271.008C97.8227 271.552 97.5614 271.984 97.2734 272.304C96.996 272.624 96.692 272.848 96.3614 272.976C96.0307 273.115 95.6627 273.184 95.2574 273.184ZM97.4974 270.24L93.6254 261.6H94.8094L98.2334 269.312L97.4974 270.24Z" fill="#333333"/>
<rect y="256" width="17" height="17" fill="#FF9F40"/>
<path d="M28.824 301V289.8H29.8L34.92 298.536H34.408L39.48 289.8H40.456V301H39.32V291.576H39.592L34.92 299.576H34.36L29.656 291.576H29.96V301H28.824ZM49.1293 301V299.144L49.0813 298.84V295.736C49.0813 295.021 48.8786 294.472 48.4733 294.088C48.0786 293.704 47.4866 293.512 46.6973 293.512C46.1533 293.512 45.6359 293.603 45.1453 293.784C44.6546 293.965 44.2386 294.205 43.8973 294.504L43.3853 293.656C43.8119 293.293 44.3239 293.016 44.9213 292.824C45.5186 292.621 46.1479 292.52 46.8093 292.52C47.8973 292.52 48.7346 292.792 49.3213 293.336C49.9186 293.869 50.2173 294.685 50.2173 295.784V301H49.1293ZM46.2333 301.08C45.6039 301.08 45.0546 300.979 44.5853 300.776C44.1266 300.563 43.7746 300.275 43.5293 299.912C43.2839 299.539 43.1613 299.112 43.1613 298.632C43.1613 298.195 43.2626 297.8 43.4653 297.448C43.6786 297.085 44.0199 296.797 44.4893 296.584C44.9693 296.36 45.6093 296.248 46.4093 296.248H49.3053V297.096H46.4413C45.6306 297.096 45.0653 297.24 44.7453 297.528C44.4359 297.816 44.2812 298.173 44.2812 298.6C44.2812 299.08 44.4679 299.464 44.8413 299.752C45.2146 300.04 45.7373 300.184 46.4093 300.184C47.0493 300.184 47.5986 300.04 48.0573 299.752C48.5266 299.453 48.8679 299.027 49.0813 298.472L49.3373 299.256C49.1239 299.811 48.7506 300.253 48.2173 300.584C47.6946 300.915 47.0333 301.08 46.2333 301.08ZM53.3028 301V292.6H54.3908V294.888L54.2788 294.488C54.5134 293.848 54.9081 293.363 55.4628 293.032C56.0174 292.691 56.7054 292.52 57.5268 292.52V293.624C57.4841 293.624 57.4414 293.624 57.3988 293.624C57.3561 293.613 57.3134 293.608 57.2708 293.608C56.3854 293.608 55.6921 293.88 55.1908 294.424C54.6894 294.957 54.4388 295.72 54.4388 296.712V301H53.3028ZM63.0095 301.08C62.1775 301.08 61.4308 300.899 60.7695 300.536C60.1188 300.163 59.6068 299.656 59.2335 299.016C58.8602 298.365 58.6735 297.624 58.6735 296.792C58.6735 295.949 58.8602 295.208 59.2335 294.568C59.6068 293.928 60.1188 293.427 60.7695 293.064C61.4308 292.701 62.1775 292.52 63.0095 292.52C63.7242 292.52 64.3695 292.659 64.9455 292.936C65.5215 293.213 65.9748 293.629 66.3055 294.184L65.4575 294.76C65.1695 294.333 64.8122 294.019 64.3855 293.816C63.9588 293.613 63.4948 293.512 62.9935 293.512C62.3962 293.512 61.8575 293.651 61.3775 293.928C60.8975 294.195 60.5188 294.573 60.2415 295.064C59.9642 295.555 59.8255 296.131 59.8255 296.792C59.8255 297.453 59.9642 298.029 60.2415 298.52C60.5188 299.011 60.8975 299.395 61.3775 299.672C61.8575 299.939 62.3962 300.072 62.9935 300.072C63.4948 300.072 63.9588 299.971 64.3855 299.768C64.8122 299.565 65.1695 299.256 65.4575 298.84L66.3055 299.416C65.9748 299.96 65.5215 300.376 64.9455 300.664C64.3695 300.941 63.7242 301.08 63.0095 301.08ZM72.7001 292.52C73.3828 292.52 73.9801 292.653 74.4921 292.92C75.0148 293.176 75.4201 293.571 75.7081 294.104C76.0068 294.637 76.1561 295.309 76.1561 296.12V301H75.0201V296.232C75.0201 295.347 74.7961 294.68 74.3481 294.232C73.9108 293.773 73.2921 293.544 72.4921 293.544C71.8948 293.544 71.3721 293.667 70.9241 293.912C70.4868 294.147 70.1455 294.493 69.9001 294.952C69.6655 295.4 69.5481 295.944 69.5481 296.584V301H68.4121V289.128H69.5481V294.904L69.3241 294.472C69.5908 293.864 70.0175 293.389 70.6041 293.048C71.1908 292.696 71.8895 292.52 72.7001 292.52Z" fill="#333333"/>
<rect y="287" width="17" height="17" fill="#FFCD56"/>
<path d="M26.032 363L31.152 351.8H32.32L37.44 363H36.192L31.488 352.488H31.968L27.264 363H26.032ZM28.048 360.008L28.4 359.048H34.912L35.264 360.008H28.048ZM43.3888 363.08C42.6634 363.08 42.0074 362.915 41.4208 362.584C40.8341 362.243 40.3648 361.757 40.0128 361.128C39.6714 360.488 39.5008 359.709 39.5008 358.792C39.5008 357.875 39.6714 357.101 40.0128 356.472C40.3541 355.832 40.8181 355.347 41.4048 355.016C41.9914 354.685 42.6528 354.52 43.3888 354.52C44.1888 354.52 44.9034 354.701 45.5328 355.064C46.1728 355.416 46.6741 355.917 47.0368 356.568C47.3994 357.208 47.5808 357.949 47.5808 358.792C47.5808 359.645 47.3994 360.392 47.0368 361.032C46.6741 361.672 46.1728 362.173 45.5328 362.536C44.9034 362.899 44.1888 363.08 43.3888 363.08ZM39.0528 366.104V354.6H40.1408V357.128L40.0288 358.808L40.1888 360.504V366.104H39.0528ZM43.3088 362.072C43.9061 362.072 44.4394 361.939 44.9088 361.672C45.3781 361.395 45.7514 361.011 46.0288 360.52C46.3061 360.019 46.4448 359.443 46.4448 358.792C46.4448 358.141 46.3061 357.571 46.0288 357.08C45.7514 356.589 45.3781 356.205 44.9088 355.928C44.4394 355.651 43.9061 355.512 43.3088 355.512C42.7114 355.512 42.1728 355.651 41.6927 355.928C41.2234 356.205 40.8501 356.589 40.5728 357.08C40.3061 357.571 40.1728 358.141 40.1728 358.792C40.1728 359.443 40.3061 360.019 40.5728 360.52C40.8501 361.011 41.2234 361.395 41.6927 361.672C42.1728 361.939 42.7114 362.072 43.3088 362.072ZM49.8965 363V354.6H50.9845V356.888L50.8725 356.488C51.1072 355.848 51.5018 355.363 52.0565 355.032C52.6112 354.691 53.2992 354.52 54.1205 354.52V355.624C54.0778 355.624 54.0352 355.624 53.9925 355.624C53.9498 355.613 53.9072 355.608 53.8645 355.608C52.9792 355.608 52.2858 355.88 51.7845 356.424C51.2832 356.957 51.0325 357.72 51.0325 358.712V363H49.8965ZM56.1934 363V354.6H57.3294V363H56.1934ZM56.7694 352.744C56.5347 352.744 56.3374 352.664 56.1774 352.504C56.0174 352.344 55.9374 352.152 55.9374 351.928C55.9374 351.704 56.0174 351.517 56.1774 351.368C56.3374 351.208 56.5347 351.128 56.7694 351.128C57.004 351.128 57.2014 351.203 57.3614 351.352C57.5214 351.501 57.6014 351.688 57.6014 351.912C57.6014 352.147 57.5214 352.344 57.3614 352.504C57.212 352.664 57.0147 352.744 56.7694 352.744ZM60.4903 363V351.128H61.6263V363H60.4903Z" fill="#333333"/>
<rect y="349" width="17" height="17" fill="#4BC0C0"/>
<path d="M26.824 332V320.8H27.8L32.92 329.536H32.408L37.48 320.8H38.456V332H37.32V322.576H37.592L32.92 330.576H32.36L27.656 322.576H27.96V332H26.824ZM47.1293 332V330.144L47.0813 329.84V326.736C47.0813 326.021 46.8786 325.472 46.4733 325.088C46.0786 324.704 45.4866 324.512 44.6973 324.512C44.1533 324.512 43.6359 324.603 43.1453 324.784C42.6546 324.965 42.2386 325.205 41.8973 325.504L41.3853 324.656C41.8119 324.293 42.3239 324.016 42.9213 323.824C43.5186 323.621 44.1479 323.52 44.8093 323.52C45.8973 323.52 46.7346 323.792 47.3213 324.336C47.9186 324.869 48.2173 325.685 48.2173 326.784V332H47.1293ZM44.2333 332.08C43.6039 332.08 43.0546 331.979 42.5853 331.776C42.1266 331.563 41.7746 331.275 41.5293 330.912C41.2839 330.539 41.1613 330.112 41.1613 329.632C41.1613 329.195 41.2626 328.8 41.4653 328.448C41.6786 328.085 42.0199 327.797 42.4893 327.584C42.9693 327.36 43.6093 327.248 44.4093 327.248H47.3053V328.096H44.4413C43.6306 328.096 43.0653 328.24 42.7453 328.528C42.4359 328.816 42.2812 329.173 42.2812 329.6C42.2812 330.08 42.4679 330.464 42.8413 330.752C43.2146 331.04 43.7373 331.184 44.4093 331.184C45.0493 331.184 45.5986 331.04 46.0573 330.752C46.5266 330.453 46.8679 330.027 47.0813 329.472L47.3373 330.256C47.1239 330.811 46.7506 331.253 46.2173 331.584C45.6946 331.915 45.0333 332.08 44.2333 332.08ZM51.2105 335.184C50.8158 335.184 50.4372 335.12 50.0745 334.992C49.7225 334.864 49.4185 334.672 49.1625 334.416L49.6905 333.568C49.9038 333.771 50.1332 333.925 50.3785 334.032C50.6345 334.149 50.9172 334.208 51.2265 334.208C51.5998 334.208 51.9198 334.101 52.1865 333.888C52.4638 333.685 52.7252 333.323 52.9705 332.8L53.5145 331.568L53.6425 331.392L57.0985 323.6H58.2185L54.0105 333.008C53.7758 333.552 53.5145 333.984 53.2265 334.304C52.9492 334.624 52.6452 334.848 52.3145 334.976C51.9838 335.115 51.6158 335.184 51.2105 335.184ZM53.4505 332.24L49.5785 323.6H50.7625L54.1865 331.312L53.4505 332.24Z" fill="#333333"/>
<rect y="318" width="17" height="17" fill="#36A2EB"/>
</svg>
