<svg width="4" height="21" viewBox="0 0 4 21" fill="none" xmlns="http://www.w3.org/2000/svg">
<path d="M0 18.9C0 18.343 0.210714 17.8089 0.585786 17.4151C0.960859 17.0212 1.46957 16.8 2 16.8C2.53043 16.8 3.03914 17.0212 3.41421 17.4151C3.78929 17.8089 4 18.343 4 18.9C4 19.457 3.78929 19.9911 3.41421 20.3849C3.03914 20.7788 2.53043 21 2 21C1.46957 21 0.960859 20.7788 0.585786 20.3849C0.210714 19.9911 0 19.457 0 18.9ZM0 10.5C0 9.94304 0.210714 9.4089 0.585786 9.01508C0.960859 8.62125 1.46957 8.4 2 8.4C2.53043 8.4 3.03914 8.62125 3.41421 9.01508C3.78929 9.4089 4 9.94304 4 10.5C4 11.057 3.78929 11.5911 3.41421 11.9849C3.03914 12.3787 2.53043 12.6 2 12.6C1.46957 12.6 0.960859 12.3787 0.585786 11.9849C0.210714 11.5911 0 11.057 0 10.5ZM0 2.1C0 1.54305 0.210714 1.0089 0.585786 0.615076C0.960859 0.221249 1.46957 0 2 0C2.53043 0 3.03914 0.221249 3.41421 0.615076C3.78929 1.0089 4 1.54305 4 2.1C4 2.65695 3.78929 3.1911 3.41421 3.58492C3.03914 3.97875 2.53043 4.2 2 4.2C1.46957 4.2 0.960859 3.97875 0.585786 3.58492C0.210714 3.1911 0 2.65695 0 2.1Z" fill="black"/>
</svg>
