<svg width="28" height="19" viewBox="0 0 28 19" fill="none" xmlns="http://www.w3.org/2000/svg">
<path d="M7.75 17.75C8.41304 17.75 9.04893 17.4866 9.51777 17.0178C9.98661 16.5489 10.25 15.913 10.25 15.25C10.25 14.587 9.98661 13.9511 9.51777 13.4822C9.04893 13.0134 8.41304 12.75 7.75 12.75C7.08696 12.75 6.45107 13.0134 5.98223 13.4822C5.51339 13.9511 5.25 14.587 5.25 15.25C5.25 15.913 5.51339 16.5489 5.98223 17.0178C6.45107 17.4866 7.08696 17.75 7.75 17.75ZM20.25 17.75C20.913 17.75 21.5489 17.4866 22.0178 17.0178C22.4866 16.5489 22.75 15.913 22.75 15.25C22.75 14.587 22.4866 13.9511 22.0178 13.4822C21.5489 13.0134 20.913 12.75 20.25 12.75C19.587 12.75 18.9511 13.0134 18.4822 13.4822C18.0134 13.9511 17.75 14.587 17.75 15.25C17.75 15.913 18.0134 16.5489 18.4822 17.0178C18.9511 17.4866 19.587 17.75 20.25 17.75Z" stroke="#121212" stroke-width="1.5" stroke-miterlimit="1.5" stroke-linecap="round" stroke-linejoin="round"/>
<path d="M16.5 15.25V2.25C16.5 2.05109 16.421 1.86032 16.2803 1.71967C16.1397 1.57902 15.9489 1.5 15.75 1.5H2.25C2.05109 1.5 1.86032 1.57902 1.71967 1.71967C1.57902 1.86032 1.5 2.05109 1.5 2.25V14.5C1.5 14.5985 1.5194 14.696 1.55709 14.787C1.59478 14.878 1.65003 14.9607 1.71967 15.0303C1.78931 15.1 1.87199 15.1552 1.96299 15.1929C2.05398 15.2306 2.15151 15.25 2.25 15.25H4.8125M16.5 15.25H10.3125M16.5 15.25H17.75M16.5 5.25H23.5125C23.6575 5.25004 23.7993 5.29209 23.9209 5.37106C24.0425 5.45004 24.1385 5.56256 24.1975 5.695L26.435 10.73C26.4776 10.8256 26.4998 10.9291 26.5 11.0337V14.5C26.5 14.5985 26.4806 14.696 26.4429 14.787C26.4052 14.878 26.35 14.9607 26.2803 15.0303C26.2107 15.1 26.128 15.1552 26.037 15.1929C25.946 15.2306 25.8485 15.25 25.75 15.25H23.375" stroke="#121212" stroke-width="1.5" stroke-linecap="round"/>
</svg>
